<?xml version="1.0" encoding="UTF-8" standalone="no"?>
<!DOCTYPE svg PUBLIC "-//W3C//DTD SVG 1.1//EN"
 "http://www.w3.org/Graphics/SVG/1.1/DTD/svg11.dtd">
<!-- Generated by graphviz version 2.47.3 (20210619.1520)
 -->
<!-- Title: dependencies Pages: 1 -->
<svg width="770pt" height="247pt"
 viewBox="0.00 0.00 770.00 246.80" xmlns="http://www.w3.org/2000/svg" xmlns:xlink="http://www.w3.org/1999/xlink">
<g id="graph0" class="graph" transform="scale(1 1) rotate(0) translate(4 242.8)">
<title>dependencies</title>
<polygon fill="white" stroke="transparent" points="-4,4 -4,-242.8 766,-242.8 766,4 -4,4"/>
<text text-anchor="middle" x="381" y="-8.2" font-family="sans-serif" font-size="14.00">dependencies</text>
<g id="clust1" class="cluster">
<title>cluster_AuthModule</title>
<polygon fill="none" stroke="black" stroke-dasharray="1,5" points="8,-32.8 8,-230.8 754,-230.8 754,-32.8 8,-32.8"/>
</g>
<g id="clust4" class="cluster">
<title>cluster_AuthModule_exports</title>
<polygon fill="none" stroke="black" points="352,-170.8 352,-222.8 458,-222.8 458,-170.8 352,-170.8"/>
</g>
<g id="clust6" class="cluster">
<title>cluster_AuthModule_providers</title>
<polygon fill="none" stroke="black" points="16,-40.8 16,-92.8 746,-92.8 746,-40.8 16,-40.8"/>
</g>
<!-- AuthService  -->
<g id="node1" class="node">
<title>AuthService </title>
<polygon fill="#fb8072" stroke="black" points="449.98,-214.8 360.02,-214.8 360.02,-178.8 449.98,-178.8 449.98,-214.8"/>
<text text-anchor="middle" x="405" y="-192.6" font-family="Times,serif" font-size="14.00">AuthService </text>
</g>
<!-- AuthModule -->
<g id="node2" class="node">
<title>AuthModule</title>
<polygon fill="#8dd3c7" stroke="black" points="448.55,-149.8 445.55,-153.8 424.55,-153.8 421.55,-149.8 361.45,-149.8 361.45,-113.8 448.55,-113.8 448.55,-149.8"/>
<text text-anchor="middle" x="405" y="-127.6" font-family="Times,serif" font-size="14.00">AuthModule</text>
</g>
<!-- AuthModule&#45;&gt;AuthService  -->
<g id="edge1" class="edge">
<title>AuthModule&#45;&gt;AuthService </title>
<path fill="none" stroke="black" stroke-dasharray="5,2" d="M405,-149.91C405,-149.91 405,-168.79 405,-168.79"/>
<polygon fill="black" stroke="black" points="401.5,-168.79 405,-178.79 408.5,-168.79 401.5,-168.79"/>
</g>
<!-- AuthService -->
<g id="node3" class="node">
<title>AuthService</title>
<ellipse fill="#fdb462" stroke="black" cx="679" cy="-66.8" rx="59.11" ry="18"/>
<text text-anchor="middle" x="679" y="-62.6" font-family="Times,serif" font-size="14.00">AuthService</text>
</g>
<!-- AuthService&#45;&gt;AuthModule -->
<g id="edge2" class="edge">
<title>AuthService&#45;&gt;AuthModule</title>
<path fill="none" stroke="black" d="M679,-85.08C679,-106.12 679,-137.8 679,-137.8 679,-137.8 458.72,-137.8 458.72,-137.8"/>
<polygon fill="black" stroke="black" points="458.72,-134.3 448.72,-137.8 458.72,-141.3 458.72,-134.3"/>
</g>
<!-- JwtStrategy -->
<g id="node4" class="node">
<title>JwtStrategy</title>
<ellipse fill="#fdb462" stroke="black" cx="545" cy="-66.8" rx="56.76" ry="18"/>
<text text-anchor="middle" x="545" y="-62.6" font-family="Times,serif" font-size="14.00">JwtStrategy</text>
</g>
<!-- JwtStrategy&#45;&gt;AuthModule -->
<g id="edge3" class="edge">
<title>JwtStrategy&#45;&gt;AuthModule</title>
<path fill="none" stroke="black" d="M545,-84.82C545,-102.17 545,-125.8 545,-125.8 545,-125.8 458.91,-125.8 458.91,-125.8"/>
<polygon fill="black" stroke="black" points="458.91,-122.3 448.91,-125.8 458.91,-129.3 458.91,-122.3"/>
</g>
<!-- LocalStrategy -->
<g id="node5" class="node">
<title>LocalStrategy</title>
<ellipse fill="#fdb462" stroke="black" cx="405" cy="-66.8" rx="65.41" ry="18"/>
<text text-anchor="middle" x="405" y="-62.6" font-family="Times,serif" font-size="14.00">LocalStrategy</text>
</g>
<!-- LocalStrategy&#45;&gt;AuthModule -->
<g id="edge4" class="edge">
<title>LocalStrategy&#45;&gt;AuthModule</title>
<path fill="none" stroke="black" d="M405,-84.91C405,-84.91 405,-103.79 405,-103.79"/>
<polygon fill="black" stroke="black" points="401.5,-103.79 405,-113.79 408.5,-103.79 401.5,-103.79"/>
</g>
<!-- PrismaService -->
<g id="node6" class="node">
<title>PrismaService</title>
<ellipse fill="#fdb462" stroke="black" cx="255" cy="-66.8" rx="66.63" ry="18"/>
<text text-anchor="middle" x="255" y="-62.6" font-family="Times,serif" font-size="14.00">PrismaService</text>
</g>
<!-- PrismaService&#45;&gt;AuthModule -->
<g id="edge5" class="edge">
<title>PrismaService&#45;&gt;AuthModule</title>
<path fill="none" stroke="black" d="M255,-84.82C255,-102.17 255,-125.8 255,-125.8 255,-125.8 351.21,-125.8 351.21,-125.8"/>
<polygon fill="black" stroke="black" points="351.21,-129.3 361.21,-125.8 351.21,-122.3 351.21,-129.3"/>
</g>
<!-- RefreshStrategy -->
<g id="node7" class="node">
<title>RefreshStrategy</title>
<ellipse fill="#fdb462" stroke="black" cx="97" cy="-66.8" rx="73.49" ry="18"/>
<text text-anchor="middle" x="97" y="-62.6" font-family="Times,serif" font-size="14.00">RefreshStrategy</text>
</g>
<!-- RefreshStrategy&#45;&gt;AuthModule -->
<g id="edge6" class="edge">
<title>RefreshStrategy&#45;&gt;AuthModule</title>
<path fill="none" stroke="black" d="M97,-85.08C97,-106.12 97,-137.8 97,-137.8 97,-137.8 351.2,-137.8 351.2,-137.8"/>
<polygon fill="black" stroke="black" points="351.2,-141.3 361.2,-137.8 351.2,-134.3 351.2,-141.3"/>
</g>
</g>
</svg>
