<?xml version="1.0" encoding="UTF-8" standalone="no"?>
<!DOCTYPE svg PUBLIC "-//W3C//DTD SVG 1.1//EN"
 "http://www.w3.org/Graphics/SVG/1.1/DTD/svg11.dtd">
<!-- Generated by graphviz version 2.47.3 (20210619.1520)
 -->
<!-- Title: dependencies Pages: 1 -->
<svg width="328pt" height="247pt"
 viewBox="0.00 0.00 328.00 246.80" xmlns="http://www.w3.org/2000/svg" xmlns:xlink="http://www.w3.org/1999/xlink">
<g id="graph0" class="graph" transform="scale(1 1) rotate(0) translate(4 242.8)">
<title>dependencies</title>
<polygon fill="white" stroke="transparent" points="-4,4 -4,-242.8 324,-242.8 324,4 -4,4"/>
<text text-anchor="middle" x="160" y="-8.2" font-family="sans-serif" font-size="14.00">dependencies</text>
<g id="clust1" class="cluster">
<title>cluster_TodoModule</title>
<polygon fill="none" stroke="black" stroke-dasharray="1,5" points="8,-32.8 8,-230.8 312,-230.8 312,-32.8 8,-32.8"/>
</g>
<g id="clust4" class="cluster">
<title>cluster_TodoModule_exports</title>
<polygon fill="none" stroke="black" points="102,-170.8 102,-222.8 210,-222.8 210,-170.8 102,-170.8"/>
</g>
<g id="clust6" class="cluster">
<title>cluster_TodoModule_providers</title>
<polygon fill="none" stroke="black" points="16,-40.8 16,-92.8 304,-92.8 304,-40.8 16,-40.8"/>
</g>
<!-- TodoService  -->
<g id="node1" class="node">
<title>TodoService </title>
<polygon fill="#fb8072" stroke="black" points="201.53,-214.8 110.47,-214.8 110.47,-178.8 201.53,-178.8 201.53,-214.8"/>
<text text-anchor="middle" x="156" y="-192.6" font-family="Times,serif" font-size="14.00">TodoService </text>
</g>
<!-- TodoModule -->
<g id="node2" class="node">
<title>TodoModule</title>
<polygon fill="#8dd3c7" stroke="black" points="200.6,-149.8 197.6,-153.8 176.6,-153.8 173.6,-149.8 111.4,-149.8 111.4,-113.8 200.6,-113.8 200.6,-149.8"/>
<text text-anchor="middle" x="156" y="-127.6" font-family="Times,serif" font-size="14.00">TodoModule</text>
</g>
<!-- TodoModule&#45;&gt;TodoService  -->
<g id="edge1" class="edge">
<title>TodoModule&#45;&gt;TodoService </title>
<path fill="none" stroke="black" stroke-dasharray="5,2" d="M156,-149.91C156,-149.91 156,-168.79 156,-168.79"/>
<polygon fill="black" stroke="black" points="152.5,-168.79 156,-178.79 159.5,-168.79 152.5,-168.79"/>
</g>
<!-- PrismaService -->
<g id="node3" class="node">
<title>PrismaService</title>
<ellipse fill="#fdb462" stroke="black" cx="229" cy="-66.8" rx="66.63" ry="18"/>
<text text-anchor="middle" x="229" y="-62.6" font-family="Times,serif" font-size="14.00">PrismaService</text>
</g>
<!-- PrismaService&#45;&gt;TodoModule -->
<g id="edge2" class="edge">
<title>PrismaService&#45;&gt;TodoModule</title>
<path fill="none" stroke="black" d="M181.37,-79.64C181.37,-79.64 181.37,-103.32 181.37,-103.32"/>
<polygon fill="black" stroke="black" points="177.87,-103.32 181.37,-113.32 184.87,-103.32 177.87,-103.32"/>
</g>
<!-- TodoService -->
<g id="node4" class="node">
<title>TodoService</title>
<ellipse fill="#fdb462" stroke="black" cx="84" cy="-66.8" rx="60.25" ry="18"/>
<text text-anchor="middle" x="84" y="-62.6" font-family="Times,serif" font-size="14.00">TodoService</text>
</g>
<!-- TodoService&#45;&gt;TodoModule -->
<g id="edge3" class="edge">
<title>TodoService&#45;&gt;TodoModule</title>
<path fill="none" stroke="black" d="M127.91,-79.33C127.91,-79.33 127.91,-103.65 127.91,-103.65"/>
<polygon fill="black" stroke="black" points="124.41,-103.65 127.91,-113.65 131.41,-103.65 124.41,-103.65"/>
</g>
</g>
</svg>
